<svg xmlns="http://www.w3.org/2000/svg" viewBox="0 0 800 190" role="img" aria-label="Multi-head attention internals">
  <style>
    .bg{fill:#171a21;stroke:#2a2f3a;}
    .b{fill:#1e222b;stroke:#2a2f3a;}.bn{fill:#20262f;stroke:#3a4250;}.ba{fill:#16202e;stroke:#36506e;}
    .t{fill:#e6e9ef;font:12px monospace;}.tm{fill:#9aa3b2;font:11px monospace;}
    .ln{stroke:#6ea8fe;stroke-width:1.4;fill:none;}
  </style>
  <defs><marker id="a3" markerWidth="8" markerHeight="8" refX="6" refY="3" orient="auto"><path d="M0,0 L6,3 L0,6 Z" fill="#6ea8fe"/></marker></defs>
  <rect class="bg" x="1" y="1" width="798" height="188" rx="12"/>
  <rect class="b" x="16" y="78" width="70" height="40" rx="6"/><text class="t" x="42" y="102">x</text>
  <rect class="bn" x="128" y="28" width="64" height="28" rx="5"/><text class="t" x="150" y="47">Wq</text>
  <rect class="bn" x="128" y="82" width="64" height="28" rx="5"/><text class="t" x="150" y="101">Wk</text>
  <rect class="bn" x="128" y="136" width="64" height="28" rx="5"/><text class="t" x="150" y="155">Wv</text>
  <line class="ln" x1="86" y1="94" x2="126" y2="42" marker-end="url(#a3)"/>
  <line class="ln" x1="86" y1="98" x2="126" y2="96" marker-end="url(#a3)"/>
  <line class="ln" x1="86" y1="102" x2="126" y2="150" marker-end="url(#a3)"/>
  <rect class="bn" x="232" y="68" width="110" height="60" rx="6"/><text class="t" x="244" y="92">split into</text><text class="tm" x="244" y="110">8 heads &#215;64</text>
  <line class="ln" x1="192" y1="42" x2="230" y2="82" marker-end="url(#a3)"/>
  <line class="ln" x1="192" y1="96" x2="230" y2="98" marker-end="url(#a3)"/>
  <line class="ln" x1="192" y1="150" x2="230" y2="114" marker-end="url(#a3)"/>
  <rect class="ba" x="382" y="68" width="160" height="60" rx="6"/><text class="t" x="394" y="92">softmax(QK&#7488;/&#8730;64</text><text class="t" x="394" y="110">+ mask) V</text>
  <line class="ln" x1="342" y1="98" x2="380" y2="98" marker-end="url(#a3)"/>
  <rect class="bn" x="582" y="78" width="90" height="40" rx="6"/><text class="t" x="594" y="98">merge</text><text class="tm" x="594" y="112">heads</text>
  <line class="ln" x1="542" y1="98" x2="580" y2="98" marker-end="url(#a3)"/>
  <rect class="bn" x="712" y="78" width="64" height="40" rx="6"/><text class="t" x="728" y="102">Wo</text>
  <line class="ln" x1="672" y1="98" x2="710" y2="98" marker-end="url(#a3)"/>
</svg>
