<svg xmlns="http://www.w3.org/2000/svg" viewBox="0 0 800 172" role="img" aria-label="Beam plus verifier rerank">
  <style>
    .bg{fill:#171a21;stroke:#2a2f3a;}
    .b{fill:#1e222b;stroke:#2a2f3a;}.bn{fill:#20262f;stroke:#3a4250;}.ba{fill:#16202e;stroke:#36506e;}
    .t{fill:#e6e9ef;font:12px monospace;}.tm{fill:#9aa3b2;font:11px monospace;}.ta{fill:#7ee0a9;font:11px monospace;}
    .ln{stroke:#6ea8fe;stroke-width:1.4;fill:none;}
  </style>
  <defs><marker id="a5" markerWidth="8" markerHeight="8" refX="6" refY="3" orient="auto"><path d="M0,0 L6,3 L0,6 Z" fill="#6ea8fe"/></marker></defs>
  <rect class="bg" x="1" y="1" width="798" height="170" rx="12"/>
  <rect class="b" x="14" y="66" width="120" height="40" rx="6"/><text class="t" x="26" y="90">SMILES in</text>
  <rect class="bn" x="166" y="66" width="130" height="40" rx="6"/><text class="t" x="178" y="86">beam decode</text><text class="tm" x="178" y="100">width 20</text>
  <line class="ln" x1="134" y1="86" x2="164" y2="86" marker-end="url(#a5)"/>
  <rect class="b" x="328" y="22" width="210" height="26" rx="5"/><text class="tm" x="338" y="40">cand 1  &#8594; OPSIN &#8594; molecule</text>
  <rect class="b" x="328" y="56" width="210" height="26" rx="5"/><text class="tm" x="338" y="74">cand 2  &#8594; OPSIN &#8594; molecule</text>
  <rect class="b" x="328" y="90" width="210" height="26" rx="5"/><text class="tm" x="338" y="108">...</text>
  <rect class="b" x="328" y="124" width="210" height="26" rx="5"/><text class="tm" x="338" y="142">cand 20 &#8594; OPSIN &#8594; molecule</text>
  <line class="ln" x1="296" y1="82" x2="326" y2="42" marker-end="url(#a5)"/>
  <line class="ln" x1="296" y1="86" x2="326" y2="102" marker-end="url(#a5)"/>
  <rect class="ba" x="566" y="46" width="116" height="56" rx="6"/><text class="t" x="578" y="70">matches</text><text class="t" x="578" y="88">the input?</text>
  <line class="ln" x1="538" y1="69" x2="564" y2="69" marker-end="url(#a5)"/>
  <rect class="b" x="706" y="52" width="86" height="44" rx="6"/><text class="ta" x="718" y="72">verified</text><text class="tm" x="718" y="88">name out</text>
  <line class="ln" x1="682" y1="74" x2="704" y2="74" marker-end="url(#a5)"/>
</svg>
